<?xml version="1.0" standalone="no" ?>
<!DOCTYPE svg PUBLIC "-//W3C//DTD SVG 1.1//EN" "http://www.w3.org/Graphics/SVG/1.1/DTD/svg11.dtd">
<!--<?xml-stylesheet type="text/css" href="../css/svg.css" ?>-->
<svg id="Quasonama-logo" width="100%" height="100%" viewBox="0 0 1350 700" version="1.1" xmlns="http://www.w3.org/2000/svg" xmlns:xlink="http://www.w3.org/1999/xlink" xml:space="preserve" style="fill-rule:evenodd;clip-rule:evenodd;stroke-linejoin:round;stroke-miterlimit:1.41421;">
    <style>  
    #outline-stroke {
        fill: none;
        stroke-width: 30px;
        stroke: hsl(195, 60%, 45%);
        fill-rule:nonzero;
    }
        
    #inline-mask {
        fill:none;
        stroke-width:15px;
        stroke:#fff;
        fill-rule:evenodd;
    }
    
    #top-fill {
        fill: hsl(195, 60%, 30%);
        fill-rule:nonzero;
    }
        
    .arrow {
        fill: hsl(195, 60%, 45%); 
        stroke: hsl(195, 60%, 45%); 
        stroke-width:9px;
        stroke-linecap:round;
        }  
        
    #positionIcon .arc {        
        stroke-width:50px;
        stroke: hsl(195, 60%, 45%); 
        fill: none;
    }
    </style>
    <g id="positionIcon">
        <clipPath id="_clip1">
            <path d="M160.922,42.511l361.32,0l0,358.935l-361.32,207.929l0,-137.291l86.075,0l0,-102.685l-86.075,0l0,-326.888Z" />
        </clipPath>
        <g clip-path="url(#_clip1)">
            <path d="M518.016,97.112c-177.148,0 -320.754,137.763 -320.754,307.702c0,54.012 14.821,107.074 42.973,153.85" class="arc" />
        </g>
        <path d="M671.07,97.132l-150,87.499l0,-174.998l150,87.499Z" class="arrow" />
        <path d="M315.226,688.547l-150.776,-86.155l151.552,-87.498l-0.776,173.653Z" class="arrow" />
        <clipPath id="_clip2">
            <path d="M1209.22,42.511l-361.985,0l0,358.193l361.985,200.491l0,-128.421l-86.233,0l0,-109.476l86.233,0l0,-320.787Z" />
        </clipPath>
        <g clip-path="url(#_clip2)">
            <path d="M854.025,97.112c177.148,0 320.754,137.763 320.754,307.702c0,54.012 -14.821,107.074 -42.973,153.85" class="arc" />
        </g>
        <path d="M701.099,97.132l150,-87.499l0,174.998l-150,-87.499Z" class="arrow" />
        <path d="M1058.82,689.892l-3.514,-173.619l152.913,85.098l-149.399,88.521Z" class="arrow" />
    </g>
    <g id="logotype-as-vectors">
        <g id="outline-stroke">
            <path d="M37.036,399.424c-31.531,38.546 -29.75,120.233 31.088,170c45.512,37.23 78.544,20.066 95.26,-0.368c17.095,-20.898 25.916,-43.527 26.167,-66.577c15.198,-1.521 27.588,-3.401 37.044,-6.906c6.543,1.477 9.709,-0.972 13.128,-5.151c4.939,-6.038 5.951,-17.225 -1.944,-23.683c-6.037,-4.939 -11.884,-1.582 -15.957,2.45c-9.498,3.083 -21.889,4.962 -34.595,5.808c-6.525,-24.717 -23.583,-50.298 -50.054,-71.952c-36.689,-30.012 -74.873,-34.504 -100.137,-3.621ZM53.249,416.562c13.106,-16.022 41.898,-9.524 64.19,8.711c20.202,16.526 34.43,35.142 41.862,54.012c-13.319,1.12 -23.451,2.134 -32.421,4.098c-3.335,0.76 -7.325,1.372 -11.313,6.249c-8.168,9.984 1.501,25.646 9.859,23.956c11.525,-4.138 25.561,-6.609 38.838,-8.151c0.255,15.324 -4.788,30.966 -16.565,45.362c-13.867,16.951 -37.128,14.589 -61.045,-4.975c-52.478,-42.929 -53.54,-104.648 -33.405,-129.262Z" />
            <path d="M208.069,360.035c-0.013,-2.163 -0.36,-4.824 -2.039,-7.311c-5.034,-7.46 -13.675,-5.248 -18.649,-1.891c-7.708,5.202 -13.161,12.139 -7.623,20.345c1.678,2.487 4.513,3.469 5.52,4.961l50.68,75.099c7.72,11.439 26.039,13.915 36.651,7.116c17.158,-11.58 24.863,-32.342 27.836,-50.997l3.86,5.72c0.509,1.828 0.528,5.072 1.87,7.062c3.356,4.973 8.435,5.527 16.393,0.157c10.444,-7.048 13.397,-14.47 9.706,-19.941c-1.679,-2.487 -4.6,-4.134 -6.602,-4.955l-54.036,-80.073c-6.818,-13.857 -14.869,-10.233 -22.826,-4.863c-8.207,5.538 -9.512,10.038 -5.317,16.255c1.342,1.989 3.263,3.227 5.184,4.464l36.248,53.713c-1.643,18.481 -9.932,38.913 -18.386,44.619c-3.979,2.685 -10.979,0.894 -13.16,-2.339l-45.31,-67.141Z" />
            <path d="M399.475,290.218c-56.048,29.655 -74.042,73.418 -64.425,98.004c5.574,14.248 20.198,17.87 34.447,12.296c23.189,-9.071 38.641,-26.39 49.953,-55.942l0.559,-0.219l4.918,12.573c-0.243,2.672 -0.596,5.065 0.388,7.579c1.967,5.029 6.011,7.957 15.231,4.351c8.661,-3.388 17.784,-8.89 14.505,-17.271c-1.093,-2.794 -3.024,-5.26 -4.858,-5.831l-33.442,-85.492c-6.23,-15.925 -21.012,-20.773 -35.26,-15.2c-25.145,9.836 -42.298,23.633 -53.219,38.536c-6.304,1.177 -10.168,11.064 -8.092,16.373c2.186,5.587 10.166,11.163 16.871,8.541c8.102,-3.17 10.107,-10.397 8.674,-12.413c7.715,-10.749 18.49,-21.085 33.856,-27.096c7.264,-2.841 11.479,-0.302 14.32,6.962l5.574,14.249ZM409.08,316.419c5.027,12.852 -18.432,50.054 -39.107,58.142c-5.308,2.076 -9.875,1.93 -11.733,-2.82c-4.918,-12.572 12.042,-44.977 47.452,-63.983l3.388,8.661Z" />
            <path d="M529.133,208.966c-35.508,5.93 -75.546,35.733 -70.357,66.802c2.57,15.387 14.656,25.839 30.635,23.17c13.908,-2.322 22.833,-7.159 34.421,-12.44c11.046,-4.886 17.851,-9.672 26.136,-11.056c7.989,-1.334 12.873,2.413 14.158,10.106c3.805,22.784 -29.578,41.438 -49.995,44.848c-7.99,1.334 -15.388,-1.08 -18.546,-3.594c0.395,-1.282 0.493,-2.515 0.196,-4.291c-0.445,-2.663 -3.652,-7.298 -11.937,-5.914c-10.061,1.68 -13.56,9.868 -12.176,18.153c2.323,13.908 24.272,21.496 44.986,18.036c22.784,-3.805 82.058,-29.52 74.151,-76.864c-3.262,-19.53 -19.491,-27.465 -37.245,-24.5c-10.948,1.829 -20.416,7.06 -32.053,12.045c-10.504,4.491 -19.035,9.87 -26.136,11.056c-5.326,0.89 -8.78,-1.575 -9.57,-6.31c-2.224,-13.315 17.695,-32.458 46.989,-37.35c12.724,-2.125 14.746,-0.942 16.226,0.636c1.48,1.577 2.615,2.909 7.646,2.068c7.101,-1.186 10.798,-6.365 9.612,-13.467c-1.877,-11.244 -17.907,-14.346 -37.141,-11.134Z" />
            <path d="M683.485,199.299c-45.291,0.934 -82.279,40.705 -81.185,93.793c0.693,33.593 25.578,47.183 42.375,46.837c26.394,-0.544 40.974,-6.546 63.599,-29.817c7.05,-7.347 22.489,-29.87 21.97,-55.065c-0.446,-21.595 -9.867,-56.508 -46.759,-55.748ZM678.268,222.812c17.097,-0.353 23.411,14.82 23.812,34.316c0.328,15.897 -5.949,31.63 -17.118,42.962c-10.581,10.721 -20.974,16.036 -34.171,16.308c-10.798,0.222 -20.031,-10.99 -20.389,-28.386c-0.699,-33.893 23.571,-64.699 47.866,-65.2Z" />
            <path d="M782.649,257.918c30.958,-20.733 42.419,-23.393 45.401,-23.065c2.087,0.23 6.464,4.335 6.233,6.422l-9.204,83.494c-1.754,2.221 -3.177,4.177 -3.538,7.457c-0.789,7.157 3.82,11.891 13.959,13.008c11.033,1.217 17.358,-1.406 18.377,-10.65c0.461,-4.175 -0.535,-6.095 -0.934,-7.95l10.716,-97.212c1.052,-9.542 -9.46,-20.962 -20.195,-22.146c-10.735,-1.183 -24.811,3.302 -58.021,25.295l1.282,-11.629c1.423,-1.956 3.541,-4.741 4.001,-8.916c0.69,-6.262 -2.13,-10.798 -13.461,-12.047c-9.244,-1.019 -19.178,4.224 -19.836,10.188c-0.427,3.876 0.205,6.36 1.4,9.208l-2.63,23.856c-3.804,7.126 -5.854,12.031 -6.38,16.802c-0.525,4.771 1.167,8.58 3.389,10.334l-5.128,46.518c-2.947,2.089 -4.105,4.376 -4.499,7.955c-0.789,7.156 6.337,10.96 13.792,11.782c8.051,0.887 18.817,-0.944 19.671,-8.697c0.362,-3.28 -0.037,-5.135 -1.298,-7.387l6.903,-62.62Z" />
            <path d="M973.442,288.094c-62.624,-9.957 -103.297,14.222 -110.376,39.655c-4.103,14.74 5.414,26.42 20.154,30.522c23.988,6.677 46.745,2.112 73.54,-14.719l0.578,0.161l-3.62,13.005c-1.8,1.991 -3.519,3.692 -4.243,6.293c-1.448,5.202 0.027,9.973 9.564,12.627c8.96,2.494 19.558,3.576 21.971,-5.095c0.805,-2.89 0.742,-6.021 -0.381,-7.58l24.616,-88.438c4.585,-16.473 -4.321,-29.229 -19.06,-33.331c-26.012,-7.24 -48.012,-6.513 -65.696,-1.159c-5.747,-2.845 -14.775,2.738 -16.303,8.23c-1.609,5.78 1.421,15.031 8.357,16.962c8.382,2.333 14.326,-2.241 14.391,-4.714c12.624,-3.96 27.447,-5.75 43.343,-1.326c7.515,2.092 9.359,6.653 7.267,14.168l-4.102,14.739ZM965.382,314.812c-3.7,13.294 -44.802,28.946 -66.189,22.993c-5.492,-1.528 -9.055,-4.389 -7.688,-9.302c3.62,-13.006 36.645,-28.726 76.371,-22.651l-2.494,8.96Z" />
            <path d="M1065.65,333.833c25.984,-4.292 46.785,-4.43 52.582,-0.688c3.276,2.116 3.308,4.279 0.704,8.312l-42.474,65.779c-3.895,1.055 -8.101,3.696 -9.565,5.965c-4.394,6.804 -1.973,13.01 5.336,17.729c11.089,7.161 17.253,7.57 26.854,-7.3l31.082,-48.137c33.969,-4.492 50.46,-3.486 56.509,0.42c2.52,1.627 2.405,5.124 0.452,8.148l-44.427,68.804c-1.911,0.194 -4.058,1.307 -6.173,4.584c-5.696,8.821 -2.299,13.514 5.514,18.559c7.057,4.556 18.083,7.39 22.965,-0.17c2.278,-3.529 2.425,-4.862 1.458,-8.343l54.842,-84.933c5.858,-9.073 2.902,-17.767 -5.415,-23.137c-10.837,-6.998 -38.9,-8.334 -72.38,-4.598l7.811,-12.098c7.323,-11.341 6.351,-20.896 -3.73,-27.406c-12.602,-8.136 -45.358,-6.075 -67.787,-3.417l6.184,-9.577c3.303,-1.795 5.182,-4.153 6.809,-6.673c3.906,-6.049 3.632,-13.368 -3.929,-18.25c-11.593,-7.486 -18.912,-7.212 -24.119,0.853c-2.929,4.537 -3.045,8.033 -3.176,10.448l-48.983,75.86c-1.806,1.691 -4.872,2.568 -6.987,5.845c-5.859,9.072 -2.934,15.604 6.643,21.787c9.577,6.184 15.547,4.682 20.591,-3.131c1.791,-2.772 2.084,-5.439 2.215,-7.854l30.594,-47.381Z" />
            <path d="M1287.08,512.351c-45.407,-44.261 -92.578,-47.976 -113.033,-31.286c-11.855,9.673 -10.819,24.703 -1.147,36.558c15.742,19.292 36.964,28.693 68.56,30.403l0.38,0.464l-10.46,8.535c-2.618,0.588 -5.004,0.985 -7.096,2.692c-4.184,3.414 -5.731,8.162 0.527,15.832c5.88,7.206 13.913,14.203 20.886,8.513c2.324,-1.896 4.08,-4.49 4.061,-6.411l71.127,-58.036c13.25,-10.81 13.334,-26.367 3.661,-38.221c-17.069,-20.92 -35.459,-33.019 -52.992,-38.847c-3.053,-5.64 -13.649,-6.287 -18.065,-2.684c-4.649,3.794 -7.511,13.098 -2.959,18.677c5.5,6.741 12.994,6.434 14.474,4.452c12.596,4.049 25.737,11.137 36.168,23.922c4.931,6.043 3.806,10.833 -2.237,15.764l-11.855,9.673ZM1265.08,529.524c-10.693,8.725 -53.295,-2.203 -67.33,-19.404c-3.603,-4.416 -4.864,-8.808 -0.912,-12.032c10.46,-8.535 46.504,-2.323 75.447,25.557l-7.205,5.879Z" />
        </g>
        <g id="inline-mask">
            <path d="M37.036,399.424c-31.531,38.546 -29.75,120.233 31.088,170c45.512,37.23 78.544,20.066 95.26,-0.368c17.095,-20.898 25.916,-43.527 26.167,-66.577c15.198,-1.521 27.588,-3.401 37.044,-6.906c6.543,1.477 9.709,-0.972 13.128,-5.151c4.939,-6.038 5.951,-17.225 -1.944,-23.683c-6.037,-4.939 -11.884,-1.582 -15.957,2.45c-9.498,3.083 -21.889,4.962 -34.595,5.808c-6.525,-24.717 -23.583,-50.298 -50.054,-71.952c-36.689,-30.012 -74.873,-34.504 -100.137,-3.621ZM53.249,416.562c13.106,-16.022 41.898,-9.524 64.19,8.711c20.202,16.526 34.43,35.142 41.862,54.012c-13.319,1.12 -23.451,2.134 -32.421,4.098c-3.335,0.76 -7.325,1.372 -11.313,6.249c-8.168,9.984 1.501,25.646 9.859,23.956c11.525,-4.138 25.561,-6.609 38.838,-8.151c0.255,15.324 -4.788,30.966 -16.565,45.362c-13.867,16.951 -37.128,14.589 -61.045,-4.975c-52.478,-42.929 -53.54,-104.648 -33.405,-129.262Z" />
            <path d="M208.069,360.035c-0.013,-2.163 -0.36,-4.824 -2.039,-7.311c-5.034,-7.46 -13.675,-5.248 -18.649,-1.891c-7.708,5.202 -13.161,12.139 -7.623,20.345c1.678,2.487 4.513,3.469 5.52,4.961l50.68,75.099c7.72,11.439 26.039,13.915 36.651,7.116c17.158,-11.58 24.863,-32.342 27.836,-50.997l3.86,5.72c0.509,1.828 0.528,5.072 1.87,7.062c3.356,4.973 8.435,5.527 16.393,0.157c10.444,-7.048 13.397,-14.47 9.706,-19.941c-1.679,-2.487 -4.6,-4.134 -6.602,-4.955l-54.036,-80.073c-6.818,-13.857 -14.869,-10.233 -22.826,-4.863c-8.207,5.538 -9.512,10.038 -5.317,16.255c1.342,1.989 3.263,3.227 5.184,4.464l36.248,53.713c-1.643,18.481 -9.932,38.913 -18.386,44.619c-3.979,2.685 -10.979,0.894 -13.16,-2.339l-45.31,-67.141Z" />
            <path d="M399.475,290.218c-56.048,29.655 -74.042,73.418 -64.425,98.004c5.574,14.248 20.198,17.87 34.447,12.296c23.189,-9.071 38.641,-26.39 49.953,-55.942l0.559,-0.219l4.918,12.573c-0.243,2.672 -0.596,5.065 0.388,7.579c1.967,5.029 6.011,7.957 15.231,4.351c8.661,-3.388 17.784,-8.89 14.505,-17.271c-1.093,-2.794 -3.024,-5.26 -4.858,-5.831l-33.442,-85.492c-6.23,-15.925 -21.012,-20.773 -35.26,-15.2c-25.145,9.836 -42.298,23.633 -53.219,38.536c-6.304,1.177 -10.168,11.064 -8.092,16.373c2.186,5.587 10.166,11.163 16.871,8.541c8.102,-3.17 10.107,-10.397 8.674,-12.413c7.715,-10.749 18.49,-21.085 33.856,-27.096c7.264,-2.841 11.479,-0.302 14.32,6.962l5.574,14.249ZM409.08,316.419c5.027,12.852 -18.432,50.054 -39.107,58.142c-5.308,2.076 -9.875,1.93 -11.733,-2.82c-4.918,-12.572 12.042,-44.977 47.452,-63.983l3.388,8.661Z" />
            <path d="M529.133,208.966c-35.508,5.93 -75.546,35.733 -70.357,66.802c2.57,15.387 14.656,25.839 30.635,23.17c13.908,-2.322 22.833,-7.159 34.421,-12.44c11.046,-4.886 17.851,-9.672 26.136,-11.056c7.989,-1.334 12.873,2.413 14.158,10.106c3.805,22.784 -29.578,41.438 -49.995,44.848c-7.99,1.334 -15.388,-1.08 -18.546,-3.594c0.395,-1.282 0.493,-2.515 0.196,-4.291c-0.445,-2.663 -3.652,-7.298 -11.937,-5.914c-10.061,1.68 -13.56,9.868 -12.176,18.153c2.323,13.908 24.272,21.496 44.986,18.036c22.784,-3.805 82.058,-29.52 74.151,-76.864c-3.262,-19.53 -19.491,-27.465 -37.245,-24.5c-10.948,1.829 -20.416,7.06 -32.053,12.045c-10.504,4.491 -19.035,9.87 -26.136,11.056c-5.326,0.89 -8.78,-1.575 -9.57,-6.31c-2.224,-13.315 17.695,-32.458 46.989,-37.35c12.724,-2.125 14.746,-0.942 16.226,0.636c1.48,1.577 2.615,2.909 7.646,2.068c7.101,-1.186 10.798,-6.365 9.612,-13.467c-1.877,-11.244 -17.907,-14.346 -37.141,-11.134Z" />
            <path d="M683.485,199.299c-45.291,0.934 -82.279,40.705 -81.185,93.793c0.693,33.593 25.578,47.183 42.375,46.837c26.394,-0.544 40.974,-6.546 63.599,-29.817c7.05,-7.347 22.489,-29.87 21.97,-55.065c-0.446,-21.595 -9.867,-56.508 -46.759,-55.748ZM678.268,222.812c17.097,-0.353 23.411,14.82 23.812,34.316c0.328,15.897 -5.949,31.63 -17.118,42.962c-10.581,10.721 -20.974,16.036 -34.171,16.308c-10.798,0.222 -20.031,-10.99 -20.389,-28.386c-0.699,-33.893 23.571,-64.699 47.866,-65.2Z" />
            <path d="M782.649,257.918c30.958,-20.733 42.419,-23.393 45.401,-23.065c2.087,0.23 6.464,4.335 6.233,6.422l-9.204,83.494c-1.754,2.221 -3.177,4.177 -3.538,7.457c-0.789,7.157 3.82,11.891 13.959,13.008c11.033,1.217 17.358,-1.406 18.377,-10.65c0.461,-4.175 -0.535,-6.095 -0.934,-7.95l10.716,-97.212c1.052,-9.542 -9.46,-20.962 -20.195,-22.146c-10.735,-1.183 -24.811,3.302 -58.021,25.295l1.282,-11.629c1.423,-1.956 3.541,-4.741 4.001,-8.916c0.69,-6.262 -2.13,-10.798 -13.461,-12.047c-9.244,-1.019 -19.178,4.224 -19.836,10.188c-0.427,3.876 0.205,6.36 1.4,9.208l-2.63,23.856c-3.804,7.126 -5.854,12.031 -6.38,16.802c-0.525,4.771 1.167,8.58 3.389,10.334l-5.128,46.518c-2.947,2.089 -4.105,4.376 -4.499,7.955c-0.789,7.156 6.337,10.96 13.792,11.782c8.051,0.887 18.817,-0.944 19.671,-8.697c0.362,-3.28 -0.037,-5.135 -1.298,-7.387l6.903,-62.62Z" />
            <path d="M973.442,288.094c-62.624,-9.957 -103.297,14.222 -110.376,39.655c-4.103,14.74 5.414,26.42 20.154,30.522c23.988,6.677 46.745,2.112 73.54,-14.719l0.578,0.161l-3.62,13.005c-1.8,1.991 -3.519,3.692 -4.243,6.293c-1.448,5.202 0.027,9.973 9.564,12.627c8.96,2.494 19.558,3.576 21.971,-5.095c0.805,-2.89 0.742,-6.021 -0.381,-7.58l24.616,-88.438c4.585,-16.473 -4.321,-29.229 -19.06,-33.331c-26.012,-7.24 -48.012,-6.513 -65.696,-1.159c-5.747,-2.845 -14.775,2.738 -16.303,8.23c-1.609,5.78 1.421,15.031 8.357,16.962c8.382,2.333 14.326,-2.241 14.391,-4.714c12.624,-3.96 27.447,-5.75 43.343,-1.326c7.515,2.092 9.359,6.653 7.267,14.168l-4.102,14.739ZM965.382,314.812c-3.7,13.294 -44.802,28.946 -66.189,22.993c-5.492,-1.528 -9.055,-4.389 -7.688,-9.302c3.62,-13.006 36.645,-28.726 76.371,-22.651l-2.494,8.96Z" />
            <path d="M1065.65,333.833c25.984,-4.292 46.785,-4.43 52.582,-0.688c3.276,2.116 3.308,4.279 0.704,8.312l-42.474,65.779c-3.895,1.055 -8.101,3.696 -9.565,5.965c-4.394,6.804 -1.973,13.01 5.336,17.729c11.089,7.161 17.253,7.57 26.854,-7.3l31.082,-48.137c33.969,-4.492 50.46,-3.486 56.509,0.42c2.52,1.627 2.405,5.124 0.452,8.148l-44.427,68.804c-1.911,0.194 -4.058,1.307 -6.173,4.584c-5.696,8.821 -2.299,13.514 5.514,18.559c7.057,4.556 18.083,7.39 22.965,-0.17c2.278,-3.529 2.425,-4.862 1.458,-8.343l54.842,-84.933c5.858,-9.073 2.902,-17.767 -5.415,-23.137c-10.837,-6.998 -38.9,-8.334 -72.38,-4.598l7.811,-12.098c7.323,-11.341 6.351,-20.896 -3.73,-27.406c-12.602,-8.136 -45.358,-6.075 -67.787,-3.417l6.184,-9.577c3.303,-1.795 5.182,-4.153 6.809,-6.673c3.906,-6.049 3.632,-13.368 -3.929,-18.25c-11.593,-7.486 -18.912,-7.212 -24.119,0.853c-2.929,4.537 -3.045,8.033 -3.176,10.448l-48.983,75.86c-1.806,1.691 -4.872,2.568 -6.987,5.845c-5.859,9.072 -2.934,15.604 6.643,21.787c9.577,6.184 15.547,4.682 20.591,-3.131c1.791,-2.772 2.084,-5.439 2.215,-7.854l30.594,-47.381Z" />
            <path d="M1287.08,512.351c-45.407,-44.261 -92.578,-47.976 -113.033,-31.286c-11.855,9.673 -10.819,24.703 -1.147,36.558c15.742,19.292 36.964,28.693 68.56,30.403l0.38,0.464l-10.46,8.535c-2.618,0.588 -5.004,0.985 -7.096,2.692c-4.184,3.414 -5.731,8.162 0.527,15.832c5.88,7.206 13.913,14.203 20.886,8.513c2.324,-1.896 4.08,-4.49 4.061,-6.411l71.127,-58.036c13.25,-10.81 13.334,-26.367 3.661,-38.221c-17.069,-20.92 -35.459,-33.019 -52.992,-38.847c-3.053,-5.64 -13.649,-6.287 -18.065,-2.684c-4.649,3.794 -7.511,13.098 -2.959,18.677c5.5,6.741 12.994,6.434 14.474,4.452c12.596,4.049 25.737,11.137 36.168,23.922c4.931,6.043 3.806,10.833 -2.237,15.764l-11.855,9.673ZM1265.08,529.524c-10.693,8.725 -53.295,-2.203 -67.33,-19.404c-3.603,-4.416 -4.864,-8.808 -0.912,-12.032c10.46,-8.535 46.504,-2.323 75.447,25.557l-7.205,5.879Z" />
        </g>
        <g id="top-fill">
            <path d="M37.036,399.424c-31.531,38.546 -29.75,120.233 31.088,170c45.512,37.23 78.544,20.066 95.26,-0.368c17.095,-20.898 25.916,-43.527 26.167,-66.577c15.198,-1.521 27.588,-3.401 37.044,-6.906c6.543,1.477 9.709,-0.972 13.128,-5.151c4.939,-6.038 5.951,-17.225 -1.944,-23.683c-6.037,-4.939 -11.884,-1.582 -15.957,2.45c-9.498,3.083 -21.889,4.962 -34.595,5.808c-6.525,-24.717 -23.583,-50.298 -50.054,-71.952c-36.689,-30.012 -74.873,-34.504 -100.137,-3.621ZM53.249,416.562c13.106,-16.022 41.898,-9.524 64.19,8.711c20.202,16.526 34.43,35.142 41.862,54.012c-13.319,1.12 -23.451,2.134 -32.421,4.098c-3.335,0.76 -7.325,1.372 -11.313,6.249c-8.168,9.984 1.501,25.646 9.859,23.956c11.525,-4.138 25.561,-6.609 38.838,-8.151c0.255,15.324 -4.788,30.966 -16.565,45.362c-13.867,16.951 -37.128,14.589 -61.045,-4.975c-52.478,-42.929 -53.54,-104.648 -33.405,-129.262Z" />
            <path d="M208.069,360.035c-0.013,-2.163 -0.36,-4.824 -2.039,-7.311c-5.034,-7.46 -13.675,-5.248 -18.649,-1.891c-7.708,5.202 -13.161,12.139 -7.623,20.345c1.678,2.487 4.513,3.469 5.52,4.961l50.68,75.099c7.72,11.439 26.039,13.915 36.651,7.116c17.158,-11.58 24.863,-32.342 27.836,-50.997l3.86,5.72c0.509,1.828 0.528,5.072 1.87,7.062c3.356,4.973 8.435,5.527 16.393,0.157c10.444,-7.048 13.397,-14.47 9.706,-19.941c-1.679,-2.487 -4.6,-4.134 -6.602,-4.955l-54.036,-80.073c-6.818,-13.857 -14.869,-10.233 -22.826,-4.863c-8.207,5.538 -9.512,10.038 -5.317,16.255c1.342,1.989 3.263,3.227 5.184,4.464l36.248,53.713c-1.643,18.481 -9.932,38.913 -18.386,44.619c-3.979,2.685 -10.979,0.894 -13.16,-2.339l-45.31,-67.141Z" />
            <path d="M399.475,290.218c-56.048,29.655 -74.042,73.418 -64.425,98.004c5.574,14.248 20.198,17.87 34.447,12.296c23.189,-9.071 38.641,-26.39 49.953,-55.942l0.559,-0.219l4.918,12.573c-0.243,2.672 -0.596,5.065 0.388,7.579c1.967,5.029 6.011,7.957 15.231,4.351c8.661,-3.388 17.784,-8.89 14.505,-17.271c-1.093,-2.794 -3.024,-5.26 -4.858,-5.831l-33.442,-85.492c-6.23,-15.925 -21.012,-20.773 -35.26,-15.2c-25.145,9.836 -42.298,23.633 -53.219,38.536c-6.304,1.177 -10.168,11.064 -8.092,16.373c2.186,5.587 10.166,11.163 16.871,8.541c8.102,-3.17 10.107,-10.397 8.674,-12.413c7.715,-10.749 18.49,-21.085 33.856,-27.096c7.264,-2.841 11.479,-0.302 14.32,6.962l5.574,14.249ZM409.08,316.419c5.027,12.852 -18.432,50.054 -39.107,58.142c-5.308,2.076 -9.875,1.93 -11.733,-2.82c-4.918,-12.572 12.042,-44.977 47.452,-63.983l3.388,8.661Z" />
            <path d="M529.133,208.966c-35.508,5.93 -75.546,35.733 -70.357,66.802c2.57,15.387 14.656,25.839 30.635,23.17c13.908,-2.322 22.833,-7.159 34.421,-12.44c11.046,-4.886 17.851,-9.672 26.136,-11.056c7.989,-1.334 12.873,2.413 14.158,10.106c3.805,22.784 -29.578,41.438 -49.995,44.848c-7.99,1.334 -15.388,-1.08 -18.546,-3.594c0.395,-1.282 0.493,-2.515 0.196,-4.291c-0.445,-2.663 -3.652,-7.298 -11.937,-5.914c-10.061,1.68 -13.56,9.868 -12.176,18.153c2.323,13.908 24.272,21.496 44.986,18.036c22.784,-3.805 82.058,-29.52 74.151,-76.864c-3.262,-19.53 -19.491,-27.465 -37.245,-24.5c-10.948,1.829 -20.416,7.06 -32.053,12.045c-10.504,4.491 -19.035,9.87 -26.136,11.056c-5.326,0.89 -8.78,-1.575 -9.57,-6.31c-2.224,-13.315 17.695,-32.458 46.989,-37.35c12.724,-2.125 14.746,-0.942 16.226,0.636c1.48,1.577 2.615,2.909 7.646,2.068c7.101,-1.186 10.798,-6.365 9.612,-13.467c-1.877,-11.244 -17.907,-14.346 -37.141,-11.134Z" />
            <path d="M683.485,199.299c-45.291,0.934 -82.279,40.705 -81.185,93.793c0.693,33.593 25.578,47.183 42.375,46.837c26.394,-0.544 40.974,-6.546 63.599,-29.817c7.05,-7.347 22.489,-29.87 21.97,-55.065c-0.446,-21.595 -9.867,-56.508 -46.759,-55.748ZM678.268,222.812c17.097,-0.353 23.411,14.82 23.812,34.316c0.328,15.897 -5.949,31.63 -17.118,42.962c-10.581,10.721 -20.974,16.036 -34.171,16.308c-10.798,0.222 -20.031,-10.99 -20.389,-28.386c-0.699,-33.893 23.571,-64.699 47.866,-65.2Z" />
            <path d="M782.649,257.918c30.958,-20.733 42.419,-23.393 45.401,-23.065c2.087,0.23 6.464,4.335 6.233,6.422l-9.204,83.494c-1.754,2.221 -3.177,4.177 -3.538,7.457c-0.789,7.157 3.82,11.891 13.959,13.008c11.033,1.217 17.358,-1.406 18.377,-10.65c0.461,-4.175 -0.535,-6.095 -0.934,-7.95l10.716,-97.212c1.052,-9.542 -9.46,-20.962 -20.195,-22.146c-10.735,-1.183 -24.811,3.302 -58.021,25.295l1.282,-11.629c1.423,-1.956 3.541,-4.741 4.001,-8.916c0.69,-6.262 -2.13,-10.798 -13.461,-12.047c-9.244,-1.019 -19.178,4.224 -19.836,10.188c-0.427,3.876 0.205,6.36 1.4,9.208l-2.63,23.856c-3.804,7.126 -5.854,12.031 -6.38,16.802c-0.525,4.771 1.167,8.58 3.389,10.334l-5.128,46.518c-2.947,2.089 -4.105,4.376 -4.499,7.955c-0.789,7.156 6.337,10.96 13.792,11.782c8.051,0.887 18.817,-0.944 19.671,-8.697c0.362,-3.28 -0.037,-5.135 -1.298,-7.387l6.903,-62.62Z" />
            <path d="M973.442,288.094c-62.624,-9.957 -103.297,14.222 -110.376,39.655c-4.103,14.74 5.414,26.42 20.154,30.522c23.988,6.677 46.745,2.112 73.54,-14.719l0.578,0.161l-3.62,13.005c-1.8,1.991 -3.519,3.692 -4.243,6.293c-1.448,5.202 0.027,9.973 9.564,12.627c8.96,2.494 19.558,3.576 21.971,-5.095c0.805,-2.89 0.742,-6.021 -0.381,-7.58l24.616,-88.438c4.585,-16.473 -4.321,-29.229 -19.06,-33.331c-26.012,-7.24 -48.012,-6.513 -65.696,-1.159c-5.747,-2.845 -14.775,2.738 -16.303,8.23c-1.609,5.78 1.421,15.031 8.357,16.962c8.382,2.333 14.326,-2.241 14.391,-4.714c12.624,-3.96 27.447,-5.75 43.343,-1.326c7.515,2.092 9.359,6.653 7.267,14.168l-4.102,14.739ZM965.382,314.812c-3.7,13.294 -44.802,28.946 -66.189,22.993c-5.492,-1.528 -9.055,-4.389 -7.688,-9.302c3.62,-13.006 36.645,-28.726 76.371,-22.651l-2.494,8.96Z" />
            <path d="M1065.65,333.833c25.984,-4.292 46.785,-4.43 52.582,-0.688c3.276,2.116 3.308,4.279 0.704,8.312l-42.474,65.779c-3.895,1.055 -8.101,3.696 -9.565,5.965c-4.394,6.804 -1.973,13.01 5.336,17.729c11.089,7.161 17.253,7.57 26.854,-7.3l31.082,-48.137c33.969,-4.492 50.46,-3.486 56.509,0.42c2.52,1.627 2.405,5.124 0.452,8.148l-44.427,68.804c-1.911,0.194 -4.058,1.307 -6.173,4.584c-5.696,8.821 -2.299,13.514 5.514,18.559c7.057,4.556 18.083,7.39 22.965,-0.17c2.278,-3.529 2.425,-4.862 1.458,-8.343l54.842,-84.933c5.858,-9.073 2.902,-17.767 -5.415,-23.137c-10.837,-6.998 -38.9,-8.334 -72.38,-4.598l7.811,-12.098c7.323,-11.341 6.351,-20.896 -3.73,-27.406c-12.602,-8.136 -45.358,-6.075 -67.787,-3.417l6.184,-9.577c3.303,-1.795 5.182,-4.153 6.809,-6.673c3.906,-6.049 3.632,-13.368 -3.929,-18.25c-11.593,-7.486 -18.912,-7.212 -24.119,0.853c-2.929,4.537 -3.045,8.033 -3.176,10.448l-48.983,75.86c-1.806,1.691 -4.872,2.568 -6.987,5.845c-5.859,9.072 -2.934,15.604 6.643,21.787c9.577,6.184 15.547,4.682 20.591,-3.131c1.791,-2.772 2.084,-5.439 2.215,-7.854l30.594,-47.381Z" />
            <path d="M1287.08,512.351c-45.407,-44.261 -92.578,-47.976 -113.033,-31.286c-11.855,9.673 -10.819,24.703 -1.147,36.558c15.742,19.292 36.964,28.693 68.56,30.403l0.38,0.464l-10.46,8.535c-2.618,0.588 -5.004,0.985 -7.096,2.692c-4.184,3.414 -5.731,8.162 0.527,15.832c5.88,7.206 13.913,14.203 20.886,8.513c2.324,-1.896 4.08,-4.49 4.061,-6.411l71.127,-58.036c13.25,-10.81 13.334,-26.367 3.661,-38.221c-17.069,-20.92 -35.459,-33.019 -52.992,-38.847c-3.053,-5.64 -13.649,-6.287 -18.065,-2.684c-4.649,3.794 -7.511,13.098 -2.959,18.677c5.5,6.741 12.994,6.434 14.474,4.452c12.596,4.049 25.737,11.137 36.168,23.922c4.931,6.043 3.806,10.833 -2.237,15.764l-11.855,9.673ZM1265.08,529.524c-10.693,8.725 -53.295,-2.203 -67.33,-19.404c-3.603,-4.416 -4.864,-8.808 -0.912,-12.032c10.46,-8.535 46.504,-2.323 75.447,25.557l-7.205,5.879Z" />
        </g>
    </g>
</svg>
