<?xml version="1.0" standalone="no"?><!DOCTYPE svg PUBLIC "-//W3C//DTD SVG 1.1//EN" "http://www.w3.org/Graphics/SVG/1.1/DTD/svg11.dtd"><svg width="100%" height="100%" viewBox="0 0 548 436" version="1.1" xmlns="http://www.w3.org/2000/svg" xmlns:xlink="http://www.w3.org/1999/xlink" xml:space="preserve" style="fill-rule:evenodd;clip-rule:evenodd;stroke-linecap:round;stroke-linejoin:round;stroke-miterlimit:10;"><g id="arcs"><path id="left 120° hemipan" d="M273.06,275.764l-160.428,94.392c-16.275,-27.689 -25.61,-59.951 -25.609,-94.391c0,-103.023 83.516,-186.539 186.537,-186.539l-0.5,186.538Z" style="fill:#8484eb;fill-rule:nonzero;stroke-width:4px;stroke:#000;"/><path id="right 120° hemipan" d="M273.56,275.764l162.854,91.043c15.084,-26.93 23.686,-57.98 23.687,-91.042c0,-103.022 -83.518,-186.539 -186.541,-186.539l0,186.538Z" style="fill:#eb8484;fill-rule:nonzero;stroke-width:4px;stroke:#000;"/><g id="right 120° arrow arc"><path id="right 120° hemipan1" d="M467.549,383.338c17.968,-32.079 28.215,-69.065 28.216,-108.448c0,-122.718 -99.486,-222.203 -222.205,-222.203" style="fill:none;stroke-width:3px;stroke-linecap:butt;stroke:#ff0101;"/><path d="M271.374,52.62l20.37,-9.203l-0.77,19.949l-19.6,-10.746Z" style="fill:#ff0101;"/><path d="M466.5,385.858l-0.089,-22.353l17.897,8.844l-17.808,13.509Z" style="fill:#ff0101;"/><g id="right arc label" transform="matrix(0.519996,-0.854169,0.854169,0.519996,-336.258,216.784)"><text x="234.351px" y="780.229px" style="font-family:'HelveticaNeue-CondensedBold';font-size:24px;fill:#000;">120°</text></g></g><g id="left 120° arrow arc"><path id="left 120° hemipan1" d="M82.427,386.516c-19.33,-32.886 -30.417,-71.203 -30.416,-112.107c0,-122.36 99.192,-221.551 221.549,-221.551" style="fill:none;stroke-width:3px;stroke-linecap:butt;stroke:#0101ff;"/><path d="M83.432,388.926l-18.099,-13.117l17.701,-9.232l0.398,22.349Z" style="fill:#0101ff;"/><path d="M275.384,52.765l-19.542,10.852l-0.878,-19.944l20.42,9.092Z" style="fill:#0101ff;"/><g id="left arc label" transform="matrix(0.536899,0.843647,-0.843647,0.536899,141.608,-227.538)"><text x="487.657px" y="387.869px" style="font-family:'HelveticaNeue-CondensedBold';font-size:24px;fill:#000;">120°</text></g></g></g><g id="mic positions"><g id="right X-Y mic"><path id="right X-Y mic arrow" d="M322.237,301.379l-46.864,-81.188l37.406,-21.596l-12.299,-21.303l98.06,26.138l-26.162,97.63l-12.396,-21.467l-37.745,21.786Z" style="fill:#c66;fill-opacity:0.721569;fill-rule:nonzero;"/><g transform="matrix(0.516448,0.894638,-0.894638,0.516448,-691.688,-280.73)"><text x="901.495px" y="-600.084px" style="font-family:'HelveticaNeue-CondensedBold';font-size:18.174px;fill:#fff;">right mic</text><text x="915.107px" y="-581.91px" style="font-family:'HelveticaNeue-CondensedBold';font-size:18.174px;fill:#fff;">array</text></g><g transform="matrix(0.49995,0.866054,-0.866054,0.49995,-585.218,470.621)"><text x="233.003px" y="-930.381px" style="font-family:'HelveticaNeue-CondensedBold';font-size:28.16px;fill:#fff;">+60°</text></g></g><g id="left X-Y mic"><path id="left X-Y mic arrow" d="M271.759,220.845l-47.034,81.46l-37.533,-21.669l-12.343,21.375l-26.484,-98.329l97.958,-26.244l-12.435,21.542l37.871,21.865Z" style="fill:#66c;fill-opacity:0.721569;fill-rule:nonzero;"/><g transform="matrix(0.518275,-0.897623,0.901918,0.510837,-738.093,-296.997)"><text x="-25.243px" y="1063.2px" style="font-family:'HelveticaNeue-CondensedBold';font-size:18.049px;fill:#fff;">left mic</text><text x="-16.904px" y="1081.25px" style="font-family:'HelveticaNeue-CondensedBold';font-size:18.049px;fill:#fff;">array</text></g><g transform="matrix(0.500024,-0.866011,0.866011,0.500024,-95.8458,-775.719)"><text x="-749.812px" y="757.998px" style="font-family:'HelveticaNeue-CondensedBold';font-size:28.061px;fill:#fff;">-60°</text></g></g><g id="left outboard mic"><path id="left outboard mic arrow" d="M185.818,277.041l11.185,41.751l-19.236,5.156l2.935,10.955l-40.556,-23.345l23.302,-40.358l2.96,11.04l19.41,-5.199Z" style="fill:#3700ff;fill-rule:nonzero;stroke-width:1px;stroke-linecap:butt;stroke-linejoin:miter;stroke:#000;"/><g transform="matrix(-0.258794,-0.965932,0.965932,-0.258794,-593.602,-934.487)"><text x="-1406.84px" y="435.435px" style="font-family:'HelveticaNeue-CondensedBold';font-size:18px;fill:#fff;">mic</text></g><g transform="matrix(-0.258792,-0.965933,0.965933,-0.258792,-583.886,-925.872)"><text x="-1402.81px" y="410.829px" style="font-family:'HelveticaNeue-CondensedBold';font-size:18px;fill:#fff;">-105°</text></g></g><g id="left inboard mic"><path id="left inboard mic arrow" d="M271.889,187.957l-41.76,11.188l-5.156,-19.24l-10.957,2.936l23.348,-40.564l40.366,23.307l-11.043,2.96l5.202,19.413Z" style="fill:#80f;fill-rule:nonzero;stroke-width:1px;stroke-linecap:butt;stroke-linejoin:miter;stroke:#000;"/><g transform="matrix(0.965932,-0.258794,0.258794,0.965932,45.9688,-168.821)"><text x="91.356px" y="399.189px" style="font-family:'HelveticaNeue-CondensedBold';font-size:18px;fill:#fff;">mic</text></g><g transform="matrix(0.965933,-0.258792,0.258792,0.965933,43.355,-169.13)"><text x="91.334px" y="383.77px" style="font-family:'HelveticaNeue-CondensedBold';font-size:18px;fill:#fff;">-15°</text></g></g><g id="right inboard mic"><path id="right inboard mic arrow" d="M316.245,198.949l-41.744,-11.187l5.153,-19.233l-10.954,-2.937l40.49,-23.447l23.296,40.355l-11.04,-2.957l-5.201,19.406Z" style="fill:#e600ff;fill-rule:nonzero;stroke-width:1px;stroke-linecap:butt;stroke-linejoin:miter;stroke:#000;"/><g transform="matrix(0.965919,0.258845,-0.258845,0.965919,-90.2228,180.219)"><text x="363.405px" y="-90.962px" style="font-family:'HelveticaNeue-CondensedBold';font-size:18px;fill:#fff;">mic</text></g><g transform="matrix(0.965919,0.258846,-0.258846,0.965919,-88.3164,181.94)"><text x="356.695px" y="-108.052px" style="font-family:'HelveticaNeue-CondensedBold';font-size:18px;fill:#fff;">+15°</text></g></g><g id="right outboard mic"><path id="right outboard mic arrow" d="M350.471,318.95l11.182,-41.731l19.227,5.151l2.936,-10.95l23.44,40.475l-40.342,23.289l2.957,-11.036l-19.4,-5.198Z" style="fill:#ff004d;fill-rule:nonzero;stroke-width:1px;stroke-linecap:butt;stroke-linejoin:miter;stroke:#000;"/><g transform="matrix(-0.258845,0.965919,-0.965919,-0.258845,-1120.19,428.812)"><text x="-521.892px" y="-1395.92px" style="font-family:'HelveticaNeue-CondensedBold';font-size:18px;fill:#fff;">mic</text></g><g transform="matrix(-0.258846,0.965919,-0.965919,-0.258846,-1134.73,429.796)"><text x="-535.598px" y="-1426.19px" style="font-family:'HelveticaNeue-CondensedBold';font-size:18px;fill:#fff;">+105°</text></g></g></g><g id="speaker positions"><g id="listener egocentre"><path id="listener egocentre arrow" d="M293.776,312.502l-40.333,0l0,-18.583l-10.584,0l30.834,-30.917l30.749,30.75l-10.666,0l0,18.75Z" style="fill:#05ff00;fill-rule:nonzero;stroke-width:1px;stroke-linecap:butt;stroke-linejoin:miter;stroke:#000;"/><text x="256.507px" y="307.543px" style="font-family:'HelveticaNeue-CondensedBold';font-size:18px;fill:#000;">front</text><text x="264.591px" y="290.752px" style="font-family:'HelveticaNeue-CondensedBold';font-size:24px;fill:#000;">0°</text></g><g id="left inboard speaker"><path id="left inboard speaker arrow" d="M173.416,19.119l58.439,-15.656l7.215,26.924l15.334,-4.108l-32.673,56.766l-56.49,-32.616l15.454,-4.143l-7.279,-27.167Z" style="fill:#80f;fill-rule:nonzero;stroke-width:1px;stroke-linecap:butt;stroke-linejoin:miter;stroke:#000;"/><g transform="matrix(0.965926,-0.258819,0.258819,0.965926,-675.027,-418.071)"><text x="725.248px" y="658.201px" style="font-family:'HelveticaNeue-CondensedBold';font-size:18px;fill:#fff;">left</text><text x="709.597px" y="676.201px" style="font-family:'HelveticaNeue-CondensedBold';font-size:18px;fill:#fff;">inboard</text></g><g transform="matrix(0.965926,-0.258819,0.258819,0.965926,69.5939,-180.689)"><text x="60.625px" y="278.357px" style="font-family:'HelveticaNeue-CondensedBold';font-size:24px;fill:#fff;">-15°</text></g></g><g id="left outboard speaker"><path id="left outboard speaker arrow" d="M18.276,375.395l-15.656,-58.438l26.924,-7.217l-4.108,-15.334l56.766,32.676l-32.616,56.488l-4.143,-15.453l-27.167,7.278Z" style="fill:#3700ff;fill-rule:nonzero;stroke-width:1px;stroke-linecap:butt;stroke-linejoin:miter;stroke:#000;"/><g transform="matrix(0.965926,-0.258819,0.258819,0.965926,559.304,-513.617)"><text x="-751.504px" y="674.93px" style="font-family:'HelveticaNeue-CondensedBold';font-size:18px;fill:#fff;">left</text><text x="-751.504px" y="692.93px" style="font-family:'HelveticaNeue-CondensedBold';font-size:18px;fill:#fff;">outboard</text></g><g transform="matrix(0.965926,-0.258819,0.258819,0.965926,136.623,134.783)"><text x="-175.434px" y="198.257px" style="font-family:'HelveticaNeue-CondensedBold';font-size:24px;fill:#fff;">-105°</text></g></g><g id="right inboard speaker"><path id="right inboard speaker arrow" d="M315.236,2.795l58.436,15.66l-7.213,26.924l15.334,4.111l-56.681,32.823l-32.61,-56.491l15.454,4.139l7.28,-27.166Z" style="fill:#e600ff;fill-rule:nonzero;stroke-width:1px;stroke-linecap:butt;stroke-linejoin:miter;stroke:#000;"/><g transform="matrix(0.965926,0.258819,-0.258819,0.965926,-698.916,-419.305)"><text x="1103.38px" y="161.548px" style="font-family:'HelveticaNeue-CondensedBold';font-size:18px;fill:#fff;">right</text><text x="1092.89px" y="179.548px" style="font-family:'HelveticaNeue-CondensedBold';font-size:18px;fill:#fff;">inboard</text></g><g transform="matrix(0.965926,0.258819,-0.258819,0.965926,-115.452,171.473)"><text x="382.804px" y="-216.378px" style="font-family:'HelveticaNeue-CondensedBold';font-size:24px;fill:#fff;">+15°</text></g></g><g id="right outboard speaker"><path id="right outboard speaker arrow" d="M545.354,317.505l-15.66,58.438l-26.924,-7.213l-4.111,15.333l-32.825,-56.679l56.493,-32.613l-4.14,15.455l27.167,7.279Z" style="fill:#ff004d;fill-rule:nonzero;stroke-width:1px;stroke-linecap:butt;stroke-linejoin:miter;stroke:#000;"/><g transform="matrix(0.965926,0.258819,-0.258819,0.965926,-23.5219,1402.3)">
<text x="233.335px" y="-1180.56px" style="font-family:'HelveticaNeue-CondensedBold';font-size:18px;fill:#fff;">right</text><text x="202.717px" y="-1162.56px" style="font-family:'HelveticaNeue-CondensedBold';font-size:18px;fill:#fff;">outboard</text></g><g transform="matrix(0.965926,0.258819,-0.258819,0.965926,378.968,56.9045)"><text x="170.028px" y="261.976px" style="font-family:'HelveticaNeue-CondensedBold';font-size:24px;fill:#fff;">+105°</text></g></g><g id="right summed image"><path id="right summed image arrow" d="M356.959,69.518c91.283,35.136 149.136,133.365 136.664,234.894l-35.879,20.872l20.547,33.045l-175.844,-99.839l0,-204.342l21.06,35.442l33.452,-20.072Z" style="fill:#cb6666;fill-opacity:0.721569;fill-rule:nonzero;"/><g transform="matrix(1.2778,2.21322,-2.21322,1.2778,-2144.69,-1177.87)"><text x="927.683px" y="-600.084px" style="font-family:'HelveticaNeue-CondensedBold';font-size:15.89px;fill:#fff;">sum of right</text><text x="923.123px" y="-584.193px" style="font-family:'HelveticaNeue-CondensedBold';font-size:15.89px;fill:#fff;">stereo image</text></g><g transform="matrix(0.5,0.866025,-0.866025,0.5,-1988.38,1472.97)"><text x="38.761px" y="-2615.62px" style="font-family:'HelveticaNeue-CondensedBold';font-size:54.145px;fill:#fff;">+60°</text></g></g><g id="left summed image"><path id="left summed image arrow" d="M54.497,305.667c-11.52,-105.333 40.198,-196.521 134.079,-235.342l35.635,19.942l21.493,-36.068l0,205.94l-176.388,99.579l20.341,-34.32l-35.16,-19.731Z" style="fill:#6565cc;fill-opacity:0.501961;fill-rule:nonzero;"/><g transform="matrix(1.27995,-2.21694,2.21694,1.27995,-2257.33,-1114.58)"><text x="-8.781px" y="1063.2px" style="font-family:'HelveticaNeue-CondensedBold';font-size:15.932px;fill:#fff;">sum of left</text><text x="-16.014px" y="1079.13px" style="font-family:'HelveticaNeue-CondensedBold';font-size:15.932px;fill:#fff;">stereo image</text></g><g transform="matrix(0.5,-0.866025,0.866025,0.5,-71.7043,-2301)"><text x="-2102.86px" y="1536.58px" style="font-family:'HelveticaNeue-CondensedBold';font-size:54.38px;fill:#fff;">-60°</text></g></g></g></svg>